HIERARCHY
ROOT reference
{
  OFFSET 0 0 0
  CHANNELS 6 Xposition Yposition Zposition Zrotation Xrotation Yrotation
  JOINT Hips
  {
    OFFSET 93.7515 80.5885 -148.29
    CHANNELS 6 Xposition Yposition Zposition Zrotation Xrotation Yrotation
    JOINT Spine
    {
      OFFSET 0 8.12958 0
      CHANNELS 6 Xposition Yposition Zposition Zrotation Xrotation Yrotation
      JOINT Spine1
      {
        OFFSET 0 26.3907 0
        CHANNELS 6 Xposition Yposition Zposition Zrotation Xrotation Yrotation
        JOINT Neck
        {
          OFFSET 0 26.2823 2.3893
          CHANNELS 6 Xposition Yposition Zposition Zrotation Xrotation Yrotation
          JOINT Head
          {
            OFFSET 0 13.8798 -1.98282
            CHANNELS 6 Xposition Yposition Zposition Zrotation Xrotation Yrotation
            End Site
            {
              OFFSET 0 24.7853 0
            }
          }
        }
        JOINT LeftShoulder
        {
          OFFSET 3.97789 23.5745 -0.27352
          CHANNELS 6 Xposition Yposition Zposition Zrotation Xrotation Yrotation
          JOINT LeftArm
          {
            OFFSET 13.7626 0 0
            CHANNELS 6 Xposition Yposition Zposition Zrotation Xrotation Yrotation
            JOINT LeftForeArm
            {
              OFFSET 26.1014 0 0
              CHANNELS 6 Xposition Yposition Zposition Zrotation Xrotation Yrotation
              JOINT LeftHand
              {
                OFFSET 29.9599 0 0
                CHANNELS 6 Xposition Yposition Zposition Zrotation Xrotation Yrotation
                End Site
                {
                  OFFSET 14.8712 0 0
                }
              }
            }
          }
        }
        JOINT RightShoulder
        {
          OFFSET -3.9517 23.5745 -0.27352
          CHANNELS 6 Xposition Yposition Zposition Zrotation Xrotation Yrotation
          JOINT RightArm
          {
            OFFSET -13.7626 0 0
            CHANNELS 6 Xposition Yposition Zposition Zrotation Xrotation Yrotation
            JOINT RightForeArm
            {
              OFFSET -26.1014 0 0
              CHANNELS 6 Xposition Yposition Zposition Zrotation Xrotation Yrotation
              JOINT RightHand
              {
                OFFSET -29.9599 0 0
                CHANNELS 6 Xposition Yposition Zposition Zrotation Xrotation Yrotation
                End Site
                {
                  OFFSET -14.8712 0 0
                }
              }
            }
          }
        }
      }
    }
    JOINT LeftUpLeg
    {
      OFFSET 9.91412 0 0
      CHANNELS 6 Xposition Yposition Zposition Zrotation Xrotation Yrotation
      JOINT LeftLeg
      {
        OFFSET 0 -41.4279 0
        CHANNELS 6 Xposition Yposition Zposition Zrotation Xrotation Yrotation
        JOINT LeftFoot
        {
          OFFSET 0 -41.0254 0
          CHANNELS 6 Xposition Yposition Zposition Zrotation Xrotation Yrotation
          JOINT LeftToeBase
          {
            OFFSET 0 -6.44418 14.8712
            CHANNELS 6 Xposition Yposition Zposition Zrotation Xrotation Yrotation
            End Site
            {
              OFFSET 0 0 3.96565
            }
          }
        }
      }
    }
    JOINT RightUpLeg
    {
      OFFSET -9.91412 0 0
      CHANNELS 6 Xposition Yposition Zposition Zrotation Xrotation Yrotation
      JOINT RightLeg
      {
        OFFSET 0 -41.4279 0
        CHANNELS 6 Xposition Yposition Zposition Zrotation Xrotation Yrotation
        JOINT RightFoot
        {
          OFFSET 0 -41.0254 0
          CHANNELS 6 Xposition Yposition Zposition Zrotation Xrotation Yrotation
          JOINT RightToeBase
          {
            OFFSET 0 -6.44418 14.8712
            CHANNELS 6 Xposition Yposition Zposition Zrotation Xrotation Yrotation
            End Site
            {
              OFFSET 0 0 3.96565
            }
          }
        }
      }
    }
  }
}
MOTION
Frames:	11
Frame Time:	0.004
0 0 0 0 0 -0 -134.364 86.9969 90.0842 -1.97002 -9.34311 68.3693 0 8.12958 0 5.13769 6.38236 -1.78232 0 26.3907 0 -0.429131 7.00963 -1.46964 -2.84217e-014 26.2823 2.3893 3.24176 12.6362 4.54352 0 13.8798 -1.98282 -13.2204 -0.32857 2.6911 3.97789 23.5745 -0.27352 -7.61832 -19.7759 31.7338 13.7626 0 0 157.746 74.3534 158.368 26.1014 2.84217e-014 0 23.4271 -48.1096 -91.8911 29.9599 0 2.84217e-014 -17.6509 -28.266 -3.83023 -3.9517 23.5745 -0.27352 21.4122 26.2806 -11.1308 -13.7626 0 2.84217e-014 44.8994 32.2889 6.25578 -26.1014 0 2.84217e-014 -16.44 -17.7315 82.8757 -29.9599 0 -1.42109e-014 -2.75578 -3.45721 5.4742 9.91412 1.42109e-014 -1.42109e-014 -2.46907 5.44806 -0.603568 0 -41.4279 0 0.900309 58.6405 -9.03856 -2.84217e-014 -41.0254 -1.42109e-014 -4.7444 -2.01836 1.14091 0 -6.44418 14.8712 -1.59028e-015 -7.95139e-016 -3.18055e-015 -9.91412 0 -1.42109e-014 1.50007 -13.19 -0.745952 0 -41.4279 0 2.03942 35.8208 13.8756 0 -41.0254 -1.42109e-014 5.60532 -21.4362 -16.0901 0 -6.44418 14.8712 -7.95139e-016 3.97569e-016 3.18055e-015 
0 0 0 0 0 -0 -133.749 86.7393 90.5003 -1.67774 -9.67828 68.9794 -2.84217e-014 8.12958 0 5.38988 6.6954 -1.72628 -2.84217e-014 26.3907 0 -0.391025 7.06899 -1.3866 0 26.2823 2.3893 3.48728 12.2145 4.5813 0 13.8798 -1.98282 -13.646 0.0292267 2.6876 3.97789 23.5745 -0.27352 -7.70847 -19.7615 31.7369 13.7626 -1.42109e-014 0 156.874 74.4329 159.14 26.1014 -2.84217e-014 7.10543e-015 23.9541 -48.0226 -91.1664 29.9599 0 0 -17.1627 -28.0198 -3.17606 -3.9517 23.5745 -0.27352 21.7552 26.2854 -11.2543 -13.7626 2.84217e-014 -2.84217e-014 44.3488 32.2916 6.51921 -26.1014 0 0 -16.444 -17.8854 82.7545 -29.9599 0 1.42109e-014 -2.41881 -3.63509 5.71716 9.91412 1.42109e-014 1.42109e-014 -1.93989 5.01169 -0.540054 0 -41.4279 2.84217e-014 1.23053 60.1981 -10.2525 2.84217e-014 -41.0254 0 -3.79741 -3.56271 2.34891 0 -6.44418 14.8712 1.59028e-015 1.59028e-015 -0 -9.91412 0 0 1.78879 -12.3285 -0.91061 0 -41.4279 1.42109e-014 2.07963 36.1517 14.2966 0 -41.0254 0 4.77783 -22.6343 -16.8836 0 -6.44418 14.8712 -7.95139e-016 0 -0 
0 0 0 0 0 -0 -133.177 86.4947 90.8895 -1.46417 -9.94894 69.4257 0 8.12958 0 5.68859 6.9535 -1.59316 0 26.3907 -2.84217e-014 -0.595704 7.18743 -1.20985 0 26.2823 2.3893 3.6447 11.8778 4.46921 0 13.8798 -1.98282 -13.6304 -0.0358739 2.54792 3.97789 23.5745 -0.27352 -7.64038 -19.8129 31.7329 13.7626 0 -2.84217e-014 156.259 74.5772 159.602 26.1014 2.84217e-014 7.10543e-015 24.4067 -47.7808 -90.5492 29.9599 -1.42109e-014 0 -16.3142 -27.6267 -2.38067 -3.9517 23.5745 -0.27352 22.1952 26.1656 -11.3137 -13.7626 0 2.84217e-014 43.8763 32.3295 6.69921 -26.1014 -1.42109e-014 0 -16.4259 -18.0367 82.5975 -29.9599 -1.42109e-014 -1.42109e-014 -2.22279 -3.84512 5.90463 9.91412 0 0 -1.45991 4.39882 -0.315594 0 -41.4279 0 1.66039 61.8284 -11.8287 0 -41.0254 -7.10543e-015 -2.72127 -5.04955 3.76499 0 -6.44418 14.8712 1.76556e-031 -3.18055e-015 3.18055e-015 -9.91412 0 0 2.07426 -11.6242 -0.979186 0 -41.4279 1.42109e-014 2.10325 36.4742 14.437 0 -41.0254 0 4.15345 -23.6987 -17.3159 0 -6.44418 14.8712 3.97569e-016 -1.98785e-016 -6.36111e-015 
0 0 0 0 0 -0 -132.614 86.2709 91.2592 -1.24749 -10.1819 69.9173 0 8.12958 -1.42109e-014 5.89055 7.2422 -1.44616 0 26.3907 0 -0.601862 7.22292 -1.03512 0 26.2823 2.3893 3.64763 11.5927 4.33593 0 13.8798 -1.98282 -13.5936 -0.0822036 2.39887 3.97789 23.5745 -0.27352 -7.78179 -19.8698 31.538 13.7626 0 0 156.251 74.8422 159.561 26.1014 0 7.10543e-015 24.8087 -47.4572 -90.0023 29.9599 0 2.84217e-014 -15.7329 -27.089 -1.98364 -3.9517 23.5745 -0.27352 22.6021 26.1946 -11.5668 -13.7626 0 2.84217e-014 43.2482 32.1749 7.15229 -26.1014 7.10543e-015 0 -16.2952 -17.9971 82.4834 -29.9599 1.42109e-014 0 -2.17496 -3.95007 5.94201 9.91412 -1.42109e-014 0 -1.0282 3.74637 -0.116211 0 -41.4279 0 2.16214 63.3712 -13.1638 0 -41.0254 0 -1.70173 -6.37347 4.96786 0 -6.44418 14.8712 -4.77083e-015 -7.95139e-016 -0 -9.91412 0 -1.42109e-014 2.31329 -10.8882 -1.16582 0 -41.4279 0 2.08285 36.6958 14.4546 0 -41.0254 -1.42109e-014 3.59852 -24.6778 -17.5814 0 -6.44418 14.8712 -3.97569e-016 -1.98785e-016 3.18055e-015 
0 0 0 0 0 -0 -132.057 86.0752 91.6134 -1.12554 -10.3932 70.3842 0 8.12958 0 6.10337 7.40025 -1.29556 0 26.3907 1.42109e-014 -0.583672 7.31304 -0.863301 0 26.2823 2.3893 3.8433 11.1442 4.33754 -1.42109e-014 13.8798 -1.98282 -13.9259 0.236142 2.36587 3.97789 23.5745 -0.27352 -7.94673 -19.9417 31.312 13.7626 0 -2.84217e-014 156.445 75.1147 159.255 26.1014 0 -7.10543e-015 25.2105 -47.1424 -89.3605 29.9599 -1.42109e-014 0 -15.5489 -26.5964 -1.6068 -3.9517 23.5745 -0.27352 22.9388 26.2678 -11.77 -13.7626 0 -2.84217e-014 42.6404 32.0091 7.6934 -26.1014 0 -2.84217e-014 -16.095 -17.9725 82.3327 -29.9599 1.42109e-014 -1.42109e-014 -2.33363 -4.15077 5.8928 9.91412 0 -1.42109e-014 -0.605638 2.92611 0.129648 2.84217e-014 -41.4279 0 2.82649 64.9034 -14.5483 0 -41.0254 0 -0.900031 -7.55157 6.22441 0 -6.44418 14.8712 1.59028e-015 3.18055e-015 -0 -9.91412 0 0 2.56929 -10.2342 -1.36283 0 -41.4279 1.42109e-014 2.05244 36.8752 14.6377 -1.42109e-014 -41.0254 1.42109e-014 3.04494 -25.5532 -18.0062 0 -6.44418 14.8712 -3.97569e-016 0 -0 
0 0 0 0 0 -0 -131.497 85.9007 91.9718 -0.972504 -10.6166 70.8444 0 8.12958 -1.42109e-014 6.34264 7.49311 -1.21877 0 26.3907 -1.42109e-014 -0.636515 7.55098 -0.761049 0 26.2823 2.3893 3.86378 10.8768 4.31168 -1.42109e-014 13.8798 -1.98282 -13.9504 0.160036 2.31571 3.97789 23.5745 -0.27352 -7.97157 -20.0218 31.2249 13.7626 0 0 156.495 75.3725 159.024 26.1014 2.84217e-014 -7.10543e-015 26.0266 -46.9933 -88.3002 29.9599 0 0 -16.4521 -25.9748 -2.1021 -3.9517 23.5745 -0.27352 23.0641 26.1903 -11.7305 -13.7626 0 -2.84217e-014 42.2113 31.7203 8.17283 -26.1014 7.10543e-015 2.84217e-014 -15.8762 -17.6247 82.1273 -29.9599 1.42109e-014 0 -2.36693 -4.04144 6.11925 9.91412 0 -1.42109e-014 -0.169337 2.13185 0.347381 0 -41.4279 -1.42109e-014 3.49262 66.3825 -16.0021 2.84217e-014 -41.0254 -7.10543e-015 0.121143 -8.69605 7.58175 0 -6.44418 14.8712 6.36111e-015 -1.59028e-015 3.18055e-015 -9.91412 0 1.42109e-014 2.85992 -9.49777 -1.5951 0 -41.4279 0 1.96353 36.8947 14.4212 0 -41.0254 2.84217e-014 2.62189 -26.3166 -17.978 -2.84217e-014 -6.44418 14.8712 -0 0 3.18055e-015 
0 0 0 0 0 -0 -130.981 85.7469 92.2957 -0.947143 -10.7164 71.286 0 8.12958 0 6.53442 7.47995 -1.14992 0 26.3907 1.42109e-014 -0.738233 7.74645 -0.672426 0 26.2823 2.3893 3.86816 10.5982 4.31018 0 13.8798 -1.98282 -13.9129 0.106271 2.30284 3.97789 23.5745 -0.27352 -7.95043 -20.0988 31.153 13.7626 -1.42109e-014 0 156.807 75.7848 158.503 26.1014 -2.84217e-014 0 26.5956 -46.6498 -87.5467 29.9599 1.42109e-014 -2.84217e-014 -16.6692 -25.3171 -1.92591 -3.9517 23.5745 -0.27352 23.2295 26.2381 -11.6623 -13.7626 1.42109e-014 2.84217e-014 41.7497 31.2059 8.7386 -26.1014 -7.10543e-015 0 -15.6164 -17.1727 81.9843 -29.9599 -1.42109e-014 0 -2.64343 -3.85088 6.06113 9.91412 1.42109e-014 1.42109e-014 0.154862 1.12283 0.578247 2.84217e-014 -41.4279 0 4.31871 67.7756 -17.339 0 -41.0254 7.10543e-015 1.03193 -9.73699 8.80581 0 -6.44418 14.8712 -3.18055e-015 -7.95139e-016 6.36111e-015 -9.91412 2.84217e-014 1.42109e-014 3.0435 -8.94606 -1.75837 0 -41.4279 0 1.99919 36.8751 14.0671 -1.42109e-014 -41.0254 1.42109e-014 2.27638 -27.0013 -17.9213 0 -6.44418 14.8712 3.97569e-016 0 -3.18055e-015 
0 0 0 0 0 -0 -130.471 85.6136 92.5897 -0.993718 -10.7265 71.6988 0 8.12958 1.42109e-014 6.63119 7.33583 -1.02403 -2.84217e-014 26.3907 1.42109e-014 -0.819281 8.0005 -0.54122 0 26.2823 2.3893 3.96903 10.3374 4.27806 0 13.8798 -1.98282 -13.9223 -0.00726511 2.23941 3.97789 23.5745 -0.27352 -7.94347 -20.1898 31.0138 13.7626 -2.84217e-014 -2.84217e-014 157.451 76.0214 157.571 26.1014 0 -7.10543e-015 27.3612 -46.4596 -86.6047 29.9599 -7.10543e-015 0 -17.0539 -24.725 -1.99764 -3.9517 23.5745 -0.27352 23.4005 26.2431 -11.6178 -13.7626 -1.42109e-014 0 41.2993 30.7063 9.26497 -26.1014 -7.10543e-015 -2.84217e-014 -15.2822 -16.7777 81.844 -29.9599 0 0 -2.71957 -3.77885 6.20369 9.91412 -1.42109e-014 0 0.378883 -0.0234478 0.928096 -2.84217e-014 -41.4279 1.42109e-014 5.53203 69.1048 -19.0667 0 -41.0254 7.10543e-015 1.92042 -10.5968 10.1224 0 -6.44418 14.8712 -4.77083e-015 1.59028e-015 -3.18055e-015 -9.91412 0 0 3.13976 -8.48182 -1.96587 0 -41.4279 2.84217e-014 2.02533 36.813 13.7397 0 -41.0254 0 2.00896 -27.6315 -17.8056 0 -6.44418 14.8712 2.20695e-032 3.97569e-016 -3.18055e-015 
0 0 0 0 0 -0 -129.981 85.5093 92.871 -1.16936 -10.7279 72.0216 0 8.12958 1.42109e-014 6.73839 7.15183 -0.87049 0 26.3907 1.42109e-014 -0.866507 8.12612 -0.387498 0 26.2823 2.3893 4.05066 10.0924 4.25924 1.42109e-014 13.8798 -1.98282 -13.9837 -0.0262456 2.19492 3.97789 23.5745 -0.27352 -7.9599 -20.2447 30.9358 13.7626 1.42109e-014 0 157.925 76.3095 156.87 26.1014 2.84217e-014 0 27.9939 -46.1886 -85.7999 29.9599 1.42109e-014 0 -17.5841 -24.0957 -2.12517 -3.9517 23.5745 -0.27352 23.4972 26.2311 -11.5647 -13.7626 0 2.84217e-014 40.9439 30.1649 9.78778 -26.1014 7.10543e-015 -2.84217e-014 -14.9618 -16.2758 81.6397 -29.9599 0 -1.42109e-014 -2.75137 -3.59431 6.31908 9.91412 0 0 0.676752 -1.29081 1.10782 0 -41.4279 1.42109e-014 5.96377 70.3276 -19.8537 0 -41.0254 -1.42109e-014 2.95795 -11.3104 11.2184 -2.84217e-014 -6.44418 14.8712 4.77083e-015 -7.95139e-016 3.18055e-015 -9.91412 0 0 3.27938 -8.15708 -2.06171 2.84217e-014 -41.4279 2.84217e-014 2.09299 36.6969 13.2098 0 -41.0254 0 1.87765 -28.1269 -17.5297 0 -6.44418 14.8712 -3.97569e-016 -1.98785e-016 -3.18055e-015 
0 0 0 0 0 -0 -129.471 85.4125 93.1442 -1.28292 -10.6944 72.387 2.84217e-014 8.12958 -1.42109e-014 6.78387 7.03587 -0.733778 0 26.3907 0 -0.870823 8.20154 -0.253828 0 26.2823 2.3893 4.03949 9.84227 4.22161 -2.84217e-014 13.8798 -1.98282 -13.9255 0.0238977 2.16142 3.97789 23.5745 -0.27352 -7.98352 -20.2903 31.027 13.7626 -1.42109e-014 0 157.44 76.4166 157.185 26.1014 0 7.10543e-015 28.7658 -45.9159 -84.8502 29.9599 -2.13163e-014 0 -17.6735 -23.3943 -2.38315 -3.9517 23.5745 -0.27352 23.5314 26.2259 -11.5523 -13.7626 0 5.68434e-014 40.6131 30.0378 10.2724 -26.1014 7.10543e-015 2.84217e-014 -14.9458 -16.1472 81.3073 -29.9599 0 0 -2.78748 -3.55984 6.59554 9.91412 -7.10543e-015 -1.42109e-014 0.855303 -2.45742 1.25894 0 -41.4279 0 6.69018 71.4201 -20.6614 0 -41.0254 -2.13163e-014 4.01901 -11.9987 12.073 0 -6.44418 14.8712 -4.77083e-015 -1.59028e-015 -0 -9.91412 -2.13163e-014 -1.42109e-014 3.35781 -7.74754 -2.22243 0 -41.4279 0 2.13068 36.529 12.7764 0 -41.0254 2.84217e-014 1.75186 -28.6333 -17.2814 2.84217e-014 -6.44418 14.8712 -7.95139e-016 -3.97569e-016 -6.36111e-015 
0 0 0 0 0 -0 -128.952 85.3227 93.3986 -1.36897 -10.6159 72.7686 2.84217e-014 8.12958 1.42109e-014 6.82918 7.00768 -0.621427 0 26.3907 -2.84217e-014 -0.971391 8.10226 -0.134017 0 26.2823 2.3893 4.34501 9.74197 4.32954 0 13.8798 -1.98282 -14.2768 0.127542 2.2137 3.97789 23.5745 -0.27352 -7.96274 -20.2491 31.1112 13.7626 -2.84217e-014 0 157.278 76.5474 157.216 26.1014 2.84217e-014 1.42109e-014 29.4583 -45.7391 -84.1312 29.9599 0 -2.84217e-014 -17.9936 -22.86 -2.1999 -3.9517 23.5745 -0.27352 23.56 26.1678 -11.5023 -13.7626 -1.42109e-014 0 40.4384 29.8558 10.5307 -26.1014 7.10543e-015 0 -14.9337 -15.8935 81.1053 -29.9599 0 2.84217e-014 -2.97377 -3.36407 6.57633 9.91412 -1.42109e-014 1.42109e-014 0.904976 -3.65875 1.40992 2.84217e-014 -41.4279 0 7.69893 72.4483 -21.4952 2.84217e-014 -41.0254 7.10543e-015 4.80045 -12.6023 12.7306 0 -6.44418 14.8712 -3.18055e-015 6.36111e-015 3.18055e-015 -9.91412 0 1.42109e-014 3.35984 -7.31427 -2.40462 0 -41.4279 0 2.18483 36.3557 12.4916 0 -41.0254 -1.42109e-014 1.52114 -29.1143 -17.1845 2.84217e-014 -6.44418 14.8712 3.97569e-016 0 -9.54166e-015 
